<svg width="65" height="106" viewBox="0 0 65 106" fill="none" xmlns="http://www.w3.org/2000/svg">
<path d="M50.75 14.79L19.58 24.52L54.35 28.46L50.75 14.79V14.79ZM49.97 14.11L40.23 9.78L19.22 23.71L49.97 14.11V14.11ZM40.39 8.88L44.11 10.54L35.62 0.83L30.51 3.3L40.39 8.88ZM18.29 25.27L28.76 85.69H45.45L18.29 25.27ZM47.83 4.92L36.46 0.42L36.44 0.43L45.93 11.28L47.83 4.92ZM24.49 9.92L23.2 15.21L37.68 9.75L24.49 9.92ZM48.62 5.37L46.73 11.7L50.63 13.49L48.62 5.37ZM24.79 9.03L38.55 8.86L29.81 3.92L30.03 3.54L24.79 9.03V9.03ZM17.46 25.67L0 106L27.91 85.94L17.46 25.67V25.67ZM36.69 11.07L22.81 16.3L18.74 22.97L36.69 11.07V11.07ZM47.37 80.95L60.95 36.22L55.08 30.35L47.37 80.95V80.95ZM19.36 25.39L45.92 84.59L54.34 29.35L19.36 25.39V25.39ZM49.58 5.58L51.46 13.21L64.48 9.72L49.58 5.58V5.58ZM47.64 3.89L45.05 0L38.59 0.32L47.64 3.89Z" fill="#6667AB"/>
</svg>
