<svg width="512" height="512" viewBox="0 0 512 512" fill="none" xmlns="http://www.w3.org/2000/svg">
<path d="M495.36 271.147L466.56 301.653C464.002 304.287 462.167 307.536 461.233 311.087C460.299 314.637 460.297 318.368 461.227 321.92L470.827 362.667C471.567 365.384 471.763 368.222 471.401 371.015C471.04 373.809 470.129 376.503 468.72 378.942C467.312 381.382 465.435 383.519 463.197 385.229C460.958 386.939 458.404 388.189 455.68 388.907L415.573 400.853C412.002 401.832 408.747 403.724 406.129 406.342C403.511 408.961 401.619 412.216 400.64 415.787L388.693 455.893C387.976 458.617 386.726 461.172 385.015 463.41C383.305 465.648 381.169 467.526 378.729 468.934C376.29 470.342 373.595 471.253 370.802 471.615C368.008 471.976 365.171 471.781 362.453 471.04L321.707 461.44C318.155 460.51 314.424 460.512 310.873 461.447C307.323 462.381 304.074 464.216 301.44 466.773L270.933 495.573C268.95 497.573 266.591 499.16 263.991 500.243C261.391 501.326 258.603 501.884 255.787 501.884C252.97 501.884 250.182 501.326 247.582 500.243C244.983 499.16 242.623 497.573 240.64 495.573L210.347 466.56C207.713 464.002 204.464 462.168 200.913 461.233C197.363 460.299 193.631 460.297 190.08 461.227L149.333 470.827C146.616 471.567 143.778 471.763 140.985 471.401C138.191 471.04 135.497 470.129 133.057 468.72C130.618 467.312 128.481 465.435 126.771 463.197C125.061 460.959 123.811 458.404 123.093 455.68L111.147 415.573C110.168 412.002 108.276 408.747 105.657 406.129C103.039 403.511 99.7844 401.619 96.2133 400.64L56.1066 388.693C50.6919 387.195 46.0867 383.622 43.2908 378.749C40.4948 373.876 39.7339 368.097 41.1733 362.667L50.7733 321.92C51.7033 318.368 51.701 314.637 50.7667 311.087C49.8324 307.536 47.9977 304.287 45.44 301.653L16.64 271.147C14.6404 269.163 13.0533 266.804 11.9703 264.204C10.8872 261.605 10.3296 258.816 10.3296 256C10.3296 253.184 10.8872 250.395 11.9703 247.796C13.0533 245.196 14.6404 242.837 16.64 240.853L45.44 210.347C47.9977 207.713 49.8324 204.464 50.7667 200.913C51.701 197.363 51.7033 193.631 50.7733 190.08L41.1733 149.333C40.4325 146.616 40.2372 143.778 40.5986 140.985C40.9601 138.191 41.8713 135.497 43.2794 133.057C44.6876 130.618 46.565 128.481 48.8032 126.771C51.0414 125.061 53.5961 123.811 56.32 123.093L96.4266 111.147C99.9977 110.168 103.252 108.276 105.871 105.657C108.489 103.039 110.381 99.7844 111.36 96.2133L123.307 56.1066C124.805 50.692 128.378 46.0867 133.251 43.2908C138.124 40.4948 143.903 39.7339 149.333 41.1733L190.08 50.7733C193.631 51.7033 197.363 51.701 200.913 50.7667C204.464 49.8324 207.713 47.9977 210.347 45.44L240.853 16.64C242.836 14.6404 245.196 13.0533 247.796 11.9703C250.395 10.8872 253.184 10.3296 256 10.3296C258.816 10.3296 261.605 10.8872 264.204 11.9703C266.804 13.0533 269.163 14.6404 271.147 16.64L301.653 45.44C304.287 47.9977 307.536 49.8324 311.087 50.7667C314.637 51.701 318.368 51.7033 321.92 50.7733L362.667 41.1733C365.384 40.4325 368.222 40.2372 371.015 40.5986C373.809 40.9601 376.503 41.8713 378.942 43.2794C381.382 44.6876 383.519 46.565 385.229 48.8032C386.939 51.0414 388.189 53.5961 388.907 56.32L400.853 96.4266C401.832 99.9977 403.724 103.252 406.342 105.871C408.961 108.489 412.216 110.381 415.787 111.36L455.893 123.307C461.308 124.805 465.913 128.378 468.709 133.251C471.505 138.124 472.266 143.903 470.827 149.333L461.227 190.08C460.297 193.631 460.299 197.363 461.233 200.913C462.167 204.464 464.002 207.713 466.56 210.347L495.36 240.853C497.359 242.837 498.947 245.196 500.03 247.796C501.113 250.395 501.67 253.184 501.67 256C501.67 258.816 501.113 261.605 500.03 264.204C498.947 266.804 497.359 269.163 495.36 271.147Z" fill="#FF0000"/>
<path d="M256 416C344.366 416 416 344.366 416 256C416 167.634 344.366 96 256 96C167.634 96 96 167.634 96 256C96 344.366 167.634 416 256 416Z" fill="#FF0000"/>
</svg>
