<svg xmlns="http://www.w3.org/2000/svg" data-name="Layer 1" viewBox="0 0 512 512"><path fill="#f66" d="M384.5 213.5v261a29.998 29.998 0 0 1-30 30h-302a15.005 15.005 0 0 1-15-15v-276Z"/><path fill="#ff4e4e" d="M354.5 228.5h-317v29.83h293.492a23.508 23.508 0 0 1 23.508 23.508V474.5a30 30 0 0 1-30 30h30a30 30 0 0 0 30-30v-246Z"/><rect width="407" height="74" x="7.5" y="154.326" fill="#f66" rx="15"/><path fill="#ff4e4e" d="M399.5 154.326h-30a15 15 0 0 1 15 15v44a15 15 0 0 1-15 15h30a15 15 0 0 0 15-15v-44a15 15 0 0 0-15-15Z"/><path fill="#6671ff" d="M175.445 228.326h71.109V504.5h-71.109zM167.945 154.326h86.109v74h-86.109z"/><path fill="#6671ff" d="m378.52 126.86-3.92 27.47a36.582 36.582 0 0 0-15.8-30.24c-10.09-7.01-23.84-6.44-35.63-4.7-24.12 3.56-49.07 12.17-70.65 23.42-.67.35-5.13 2.97-11.35 6.46-3.85 2.15-7.03 3.89-9.17 5.06v-36.65a215.227 215.227 0 0 1 67.63-48.86c.38-.18.75-.35 1.12-.51 39.9-18.03 83.96 15.21 77.77 58.55Z"/><path fill="#4e5bff" d="M299.63 83.82c.38-.18.75-.35 1.12-.51 34.933-15.786 73.054 7.73 77.85 42.915 5.67-43.028-38.146-75.857-77.85-57.915-.37.16-.74.33-1.12.51A215.227 215.227 0 0 0 232 117.68v15a215.227 215.227 0 0 1 67.63-48.86Z"/><path fill="#6671ff" d="M190 117.68v36.65c-2.14-1.17-5.32-2.91-9.17-5.06-6.22-3.49-10.68-6.11-11.35-6.46-21.58-11.25-46.53-19.86-70.65-23.42-11.79-1.74-25.54-2.31-35.63 4.7a36.582 36.582 0 0 0-15.8 30.24l-3.92-27.47c-6.19-43.34 37.87-76.58 77.77-58.55.37.16.74.33 1.12.51A215.227 215.227 0 0 1 190 117.68Z"/><path fill="#4e5bff" d="M122.37 68.82c-.38-.18-.75-.35-1.12-.51-39.704-17.942-83.52 14.887-77.85 57.915 4.796-35.186 42.917-58.7 77.85-42.915.37.16.74.33 1.12.51A215.227 215.227 0 0 1 190 132.68v-15a215.227 215.227 0 0 0-67.63-48.86Z"/><path fill="#3645ff" d="M190 117.684h42v36.641h-42z"/><path fill="#ff4e4e" d="M384.5 360.5v114a29.998 29.998 0 0 1-30 30h-66a15.005 15.005 0 0 1-15-15v-114a15.005 15.005 0 0 1 15-15Z"/><rect width="216" height="144" x="288.5" y="360.5" fill="#ffe966" rx="15"/><path fill="#ffe236" d="M489.5 360.5h-30a15.005 15.005 0 0 1 15 15v114a15.005 15.005 0 0 1-15 15h30a15.005 15.005 0 0 0 15-15v-114a15.005 15.005 0 0 0-15-15Z"/><path fill="#4e5bff" d="M175.445 228.326h71.109v30.318h-71.109z"/><path fill="#313440" d="M489.5 353H392V235.826h7.5a22.526 22.526 0 0 0 22.5-22.5v-44a22.526 22.526 0 0 0-22.5-22.5h-16.254l2.7-18.91a63.05 63.05 0 0 0-88.272-66.448l-1.167.53a221.308 221.308 0 0 0-67.716 48.187H193.21a221.305 221.305 0 0 0-67.719-48.188l-1.155-.525a63.05 63.05 0 0 0-88.28 66.443l2.7 18.911H22.5a22.526 22.526 0 0 0-22.5 22.5v44a22.526 22.526 0 0 0 22.5 22.5H30V489.5A22.526 22.526 0 0 0 52.5 512h437a22.526 22.526 0 0 0 22.5-22.5v-114a22.526 22.526 0 0 0-22.5-22.5Zm-44.509 57.6a11 11 0 1 1 11 11h-11Zm-70.383-248.773H399.5a7.508 7.508 0 0 1 7.5 7.5v44a7.508 7.508 0 0 1-7.5 7.5H261.555v-59h113.04Zm-113.38-15c20.299-9.917 42.469-16.98 63.04-20.016 8.96-1.323 21.842-2.405 30.248 3.439a28.928 28.928 0 0 1 11.628 16.576ZM197.5 125.184h27v21.641h-27Zm-175 95.641a7.508 7.508 0 0 1-7.5-7.5v-44a7.508 7.508 0 0 1 7.5-7.5h24.87l.022.001H160.445v59Zm33.356-74a28.93 28.93 0 0 1 11.628-16.577c8.405-5.842 21.29-4.76 30.247-3.438 20.58 3.038 42.758 10.104 63.042 20.015ZM167.946 497H52.5a7.508 7.508 0 0 1-7.5-7.5V236h122.945ZM99.921 111.972c-11.484-1.696-28.226-2.921-41 5.962a44.258 44.258 0 0 0-8.085 7.247 48.034 48.034 0 0 1 67.331-50.035l1.071.487a206.353 206.353 0 0 1 63.261 45.056v20.913c-2.927-1.651-5.352-3.046-6.992-3.989-1.385-.797-2.282-1.307-2.556-1.449-23.124-12.061-49.06-20.653-73.03-24.192ZM239.055 497h-56.11V236h56.11Zm7.5-276.174h-71.11v-59h14.527l.016.001h56.567Zm-.063-83.213c-1.64.943-4.065 2.338-6.992 3.989v-20.935a206.351 206.351 0 0 1 63.258-45.033l1.083-.492a48.034 48.034 0 0 1 67.322 50.039 44.276 44.276 0 0 0-8.085-7.246c-12.773-8.883-29.517-7.657-41-5.963-23.97 3.539-49.906 12.13-73.021 24.187-.283.147-1.18.657-2.565 1.454ZM282.29 497h-28.235V236H377v117h-73.5a22.526 22.526 0 0 0-22.5 22.5v114a22.393 22.393 0 0 0 1.29 7.5Zm147.701 0H303.5a7.508 7.508 0 0 1-7.5-7.5v-52.86h123.344l-14.217 14.217a7.5 7.5 0 0 0 10.607 10.608l14.257-14.257Zm0-75.4h-11a11 11 0 1 1 11-11Zm0-34.55a25.988 25.988 0 0 0-34.533 34.59H296V375.5a7.508 7.508 0 0 1 7.5-7.5h126.491ZM497 489.5a7.508 7.508 0 0 1-7.5 7.5h-44.509v-49.792l14.257 14.257a7.5 7.5 0 0 0 10.607-10.608l-14.216-14.216H497Zm0-67.86h-17.476a25.988 25.988 0 0 0-34.533-34.59V368H489.5a7.508 7.508 0 0 1 7.5 7.5Z"/></svg>